
        <svg xmlns="http://www.w3.org/2000/svg" xmlns:xlink="http://www.w3.org/1999/xlink" version="1.1" width="3179.1044776119397" height="1052.4729451060275" viewBox="-71.64179104477611 -35.82089552238806 3179.1044776119397 1052.4729451060275">
			
			<g transform="scale(8.955223880597014) translate(10, 10)">
				<defs id="SvgjsDefs22784"/><g id="SvgjsG22785" featureKey="symbolFeature-0" transform="matrix(1.5287111901396893,0,0,1.5287111901396893,-30.52250166108638,-37.10118321348444)" fill="#000"><g xmlns="http://www.w3.org/2000/svg"><path d="M75.492,45.116l2.039-3.151L46.128,21.653l-11.275,7.295V22.01H23.986v13.969l-9.253,5.986l2.037,3.151l7.216-4.668v24.483   h-8.235v3.75h8.235h14.28h15.937h14.076h8.232v-3.75h-8.232V40.448L75.492,45.116z M27.736,25.76h3.367v5.615l-3.367,2.178V25.76z    M42.017,64.931V48.333h8.437v16.598H42.017z M64.529,64.931H54.203V44.583H38.266v20.348h-10.53V38.02l18.392-11.9l18.401,11.904   V64.931z"/></g></g><g id="SvgjsG22786" featureKey="nameFeature-0" transform="matrix(2.4467349675347907,0,0,2.4467349675347907,112.99002593172195,-29.30728468270586)" fill="#000"><path d="M4.893 35.9626 l4.3316 0 l0 -19.572 l-5.4011 0 l1.0695 0.82888 l0 18.743 z M12.888 14.84 l0 22.701 c0 1.4171 -1.1497 2.6471 -2.6471 2.6471 l-6.3636 0 c-1.4973 0 -2.6471 -1.2299 -2.6471 -2.6471 l0 -22.701 c0 -1.4973 1.1497 -2.6471 2.6471 -2.6471 l6.3636 0 c1.4973 0 2.6471 1.1497 2.6471 2.6471 z M19.83960213903743 25.989 l1.0963 0.82888 l0 9.4652 l3.6631 0 l0 -10.294 l-4.7594 0 z M20.37430213903743 22.299 l4.2246 0 l0 -9.492 l-0.66845 -0.82888 l3.877 0.026738 l0 27.995 l-7.4332 -0.026738 c-1.4973 0 -2.6471 -1.1497 -2.6471 -2.6471 l0 -12.38 c0 -1.4973 1.1497 -2.6471 2.6471 -2.6471 z M35.10699197860962 31.604300000000002 l1.0695 0.82888 l0 3.9037 l3.6631 0 l0 -4.7326 l-4.7326 0 z M43.02149197860962 25.053 l0 14.947 l0 0.026738 l-7.3797 -0.026738 c-1.4973 0 -2.6471 -1.1497 -2.6471 -2.6203 l0 -6.8182 c0 -1.4706 1.1497 -2.6203 2.6471 -2.6203 l4.1979 0 l0 -1.8449 l-6.8449 -0.026738 l0 -1.016 c0 -1.4973 1.1497 -2.6471 2.6471 -2.6471 l4.7594 0 c1.4706 0 2.6203 1.1497 2.6203 2.6471 z M48.342198395721915 39.973262 l0 -16.765 l-0.66845 -0.82888 l8.0749 0 c1.4171 0 2.6471 1.1497 2.6471 2.6471 l0 14.947 l-3.2086 0 l0 -13.93 l-4.7326 0 l1.0963 0.82888 l0 13.102 l-3.2086 0 z M65.72190053475934 26.096 l1.0963 0.82888 l0 2.8342 l3.6364 0 l0 -3.6631 l-4.7326 0 z M66.25670053475935 22.433 l4.7594 0 c1.4706 0 2.6203 1.1497 2.6203 2.6471 l0 5.7219 c0 1.4973 -1.1497 2.6471 -2.6203 2.6471 l-4.1979 0 l0 2.9144 l6.8182 0 l0 1.0428 c0 1.4706 -1.1497 2.6203 -2.6203 2.6203 l-4.7594 0 c-1.4973 0 -2.6471 -1.1497 -2.6471 -2.6203 l0 -12.326 c0 -1.4973 1.1497 -2.6471 2.6471 -2.6471 z M80.8021689839572 26.15 l1.0963 0.80214 l0 9.3583 l5.1604 0 l0 3.6364 l-5.7219 0 c-1.4706 0 -2.6203 -1.1497 -2.6203 -2.6203 l0 -21.364 l3.1818 0 l0 6.5241 l3.6096 0 l0 3.6364 z"/></g><g id="SvgjsG22787" featureKey="sloganFeature-0" transform="matrix(0.47001901473133667,0,0,0.47001901473133667,122.66158618388482,83.99415937122924)" fill="#000"><path d="M15.26 12.219999999999999 l0 1.4 c0 3.96 -2.88 6.66 -7.08 6.66 c-4.3 0 -7.46 -3.16 -7.46 -7.3 c0 -4.12 3.18 -7.26 7.34 -7.26 c3.46 0 5.84 1.94 6.72 4.28 l-2.54 0.72 c-0.7 -1.44 -2 -2.42 -4.16 -2.42 c-2.74 0 -4.58 2.14 -4.58 4.66 s1.74 4.76 4.88 4.76 c2.36 0 3.8 -1.4 4.04 -3.14 l-4.3 0 l0 -2.36 l7.14 0 z M31.055 4.800000000000001 c-0.76 0 -1.34 -0.58 -1.34 -1.34 c0 -0.72 0.58 -1.32 1.34 -1.32 s1.36 0.6 1.36 1.32 c0 0.76 -0.6 1.34 -1.36 1.34 z M34.935 4.800000000000001 c-0.76 0 -1.34 -0.58 -1.34 -1.34 c0 -0.72 0.58 -1.32 1.34 -1.32 c0.74 0 1.34 0.6 1.34 1.32 c0 0.76 -0.6 1.34 -1.34 1.34 z M36.295 6 l2.76 0 l0 8.26 c0 3.56 -2.16 6.02 -6.06 6.02 c-3.92 0 -6.06 -2.46 -6.06 -6.02 l0 -8.26 l2.78 0 l0 8.22 c0 2.06 1.1 3.54 3.28 3.54 c2.2 0 3.3 -1.48 3.3 -3.54 l0 -8.22 z M61.129999999999995 6 l3.02 0 l-5.52 14 l-3 0 l-5.52 -14 l3.02 0 l4 10.52 z M85.64500000000001 8.48 l-7.64 0 l0 3.2 l6.62 0 l0 2.4 l-6.62 0 l0 3.44 l7.62 0 l0 2.48 l-10.3 0 l0 -14 l10.32 0 l0 2.48 z M106.92 6 l2.74 0 l0 14 l-2.26 0 l-7.04 -9.1 l0 9.1 l-2.74 0 l0 -14 l2.26 0 l7.04 9.08 l0 -9.08 z M124.77500000000002 17.48 l6.98 0 l0 2.52 l-9.72 0 l0 -14 l2.74 0 l0 11.48 z M143.29000000000002 20 l0 -14 l2.78 0 l0 14 l-2.78 0 z M179.92000000000002 20.28 c-4.24 0 -7.36 -3.16 -7.36 -7.3 c0 -4.12 3.12 -7.26 7.36 -7.26 c4.22 0 7.34 3.14 7.34 7.26 c0 4.14 -3.12 7.3 -7.34 7.3 z M179.92000000000002 17.740000000000002 c2.76 0 4.58 -2.08 4.58 -4.76 c0 -2.62 -1.82 -4.72 -4.58 -4.72 c-2.78 0 -4.58 2.1 -4.58 4.72 c0 2.68 1.8 4.76 4.58 4.76 z M205.135 6 c4.08 0 6.7 2.88 6.7 7 c0 4.04 -2.58 7 -6.7 7 l-6.08 0 l0 -14 l6.08 0 z M205.075 17.52 c2.4 0 4 -1.88 4 -4.58 c0 -2.66 -1.6 -4.48 -4 -4.48 l-3.3 0 l0 9.06 l3.3 0 z M233.85 20 l-1.14 -3.04 l-6.3 0 l-1.16 3.04 l-2.84 0 l5.36 -14 l3.56 0 l5.38 14 l-2.86 0 z M227.30999999999997 14.54 l4.48 0 l-2.24 -5.92 z M271.76 20 l-4.42 -5.86 l-2.06 2.28 l0 3.58 l-2.74 0 l0 -14 l2.74 0 l0 6.78 l5.9 -6.78 l3.48 0 l-5.52 6.12 l5.96 7.88 l-3.34 0 z M286.375 20 l0 -14 l2.78 0 l0 14 l-2.78 0 z M310.40999999999997 20 l-3.18 -4.9 l-2.98 0 l0 4.9 l-2.72 0 l0 -14 l6.82 0 c3.04 0 4.8 2.34 4.8 4.56 c0 1.84 -1.08 3.58 -3.06 4.26 l3.48 5.18 l-3.16 0 z M304.24999999999994 8.46 l0 4.24 l3.92 0 c1.42 0 2.32 -0.98 2.32 -2.14 c0 -1.12 -0.92 -2.1 -2.22 -2.1 l-4.02 0 z M335.42499999999995 20 l-1.14 -3.04 l-6.3 0 l-1.16 3.04 l-2.84 0 l5.36 -14 l3.56 0 l5.38 14 l-2.86 0 z M328.885 14.54 l4.48 0 l-2.24 -5.92 z M352.15999999999997 17.48 l6.98 0 l0 2.52 l-9.72 0 l0 -14 l2.74 0 l0 11.48 z M380.8949999999999 20 l-1.14 -3.04 l-6.3 0 l-1.16 3.04 l-2.84 0 l5.36 -14 l3.56 0 l5.38 14 l-2.86 0 z M374.35499999999996 14.54 l4.48 0 l-2.24 -5.92 z M406.6699999999999 6 l2.62 0 l0 14 l-2.74 0 l0 -9.22 l-4.46 6.18 l-4.46 -6.18 l0 9.22 l-2.74 0 l0 -14 l2.62 0 l4.58 6.62 z M431.8849999999999 20 l-1.14 -3.04 l-6.3 0 l-1.16 3.04 l-2.84 0 l5.36 -14 l3.56 0 l5.38 14 l-2.86 0 z M425.3449999999999 14.54 l4.48 0 l-2.24 -5.92 z"/></g>
			</g>
		</svg>
	